<mxfile>
    <diagram id="LpUvIIttoJX7Mj-2VVL4" name="Page-1">
        <mxGraphModel dx="325" dy="761" grid="1" gridSize="10" guides="1" tooltips="1" connect="1" arrows="1" fold="1" page="1" pageScale="1" pageWidth="827" pageHeight="1169" math="0" shadow="0">
            <root>
                <mxCell id="0"/>
                <mxCell id="1" parent="0"/>
                <mxCell id="GGjfLmtMtnxDscI8gtsh-1" value="" style="ellipse;whiteSpace=wrap;html=1;aspect=fixed;fillColor=#f0a30a;strokeColor=#BD7000;fontColor=#ffffff;" parent="1" vertex="1">
                    <mxGeometry x="360" y="360" width="80" height="80" as="geometry"/>
                </mxCell>
                <mxCell id="GGjfLmtMtnxDscI8gtsh-2" value="" style="ellipse;whiteSpace=wrap;html=1;aspect=fixed;fillColor=#f0a30a;strokeColor=#BD7000;fontColor=#ffffff;" parent="1" vertex="1">
                    <mxGeometry x="240" y="240" width="80" height="80" as="geometry"/>
                </mxCell>
                <mxCell id="GGjfLmtMtnxDscI8gtsh-3" value="" style="ellipse;whiteSpace=wrap;html=1;aspect=fixed;" parent="1" vertex="1">
                    <mxGeometry x="480" y="240" width="80" height="80" as="geometry"/>
                </mxCell>
                <mxCell id="GGjfLmtMtnxDscI8gtsh-4" value="" style="ellipse;whiteSpace=wrap;html=1;aspect=fixed;" parent="1" vertex="1">
                    <mxGeometry x="130" y="120" width="80" height="80" as="geometry"/>
                </mxCell>
                <mxCell id="GGjfLmtMtnxDscI8gtsh-5" value="" style="ellipse;whiteSpace=wrap;html=1;aspect=fixed;fillColor=#e51400;strokeColor=#B20000;fontColor=#ffffff;" parent="1" vertex="1">
                    <mxGeometry x="350" y="120" width="80" height="80" as="geometry"/>
                </mxCell>
                <mxCell id="GGjfLmtMtnxDscI8gtsh-6" value="" style="ellipse;whiteSpace=wrap;html=1;aspect=fixed;" parent="1" vertex="1">
                    <mxGeometry x="600" y="120" width="80" height="80" as="geometry"/>
                </mxCell>
                <mxCell id="GGjfLmtMtnxDscI8gtsh-11" value="" style="endArrow=none;html=1;endFill=0;" parent="1" source="GGjfLmtMtnxDscI8gtsh-1" target="GGjfLmtMtnxDscI8gtsh-2" edge="1">
                    <mxGeometry width="50" height="50" relative="1" as="geometry">
                        <mxPoint x="370" y="150" as="sourcePoint"/>
                        <mxPoint x="420" y="100" as="targetPoint"/>
                    </mxGeometry>
                </mxCell>
                <mxCell id="GGjfLmtMtnxDscI8gtsh-12" value="" style="endArrow=none;html=1;endFill=0;" parent="1" source="GGjfLmtMtnxDscI8gtsh-2" target="GGjfLmtMtnxDscI8gtsh-4" edge="1">
                    <mxGeometry width="50" height="50" relative="1" as="geometry">
                        <mxPoint x="370" y="150" as="sourcePoint"/>
                        <mxPoint x="420" y="100" as="targetPoint"/>
                    </mxGeometry>
                </mxCell>
                <mxCell id="GGjfLmtMtnxDscI8gtsh-13" value="" style="endArrow=none;html=1;endFill=0;" parent="1" source="GGjfLmtMtnxDscI8gtsh-2" target="GGjfLmtMtnxDscI8gtsh-5" edge="1">
                    <mxGeometry width="50" height="50" relative="1" as="geometry">
                        <mxPoint x="370" y="150" as="sourcePoint"/>
                        <mxPoint x="420" y="100" as="targetPoint"/>
                    </mxGeometry>
                </mxCell>
                <mxCell id="GGjfLmtMtnxDscI8gtsh-14" value="" style="endArrow=none;html=1;exitX=0.696;exitY=0.058;exitDx=0;exitDy=0;exitPerimeter=0;endFill=0;" parent="1" source="GGjfLmtMtnxDscI8gtsh-1" target="GGjfLmtMtnxDscI8gtsh-3" edge="1">
                    <mxGeometry width="50" height="50" relative="1" as="geometry">
                        <mxPoint x="410" y="350" as="sourcePoint"/>
                        <mxPoint x="490" y="260" as="targetPoint"/>
                    </mxGeometry>
                </mxCell>
                <mxCell id="GGjfLmtMtnxDscI8gtsh-15" value="" style="endArrow=none;html=1;endFill=0;" parent="1" source="GGjfLmtMtnxDscI8gtsh-3" target="GGjfLmtMtnxDscI8gtsh-6" edge="1">
                    <mxGeometry width="50" height="50" relative="1" as="geometry">
                        <mxPoint x="370" y="150" as="sourcePoint"/>
                        <mxPoint x="420" y="100" as="targetPoint"/>
                    </mxGeometry>
                </mxCell>
                <mxCell id="5" value="" style="curved=1;endArrow=classic;html=1;exitX=0.5;exitY=1;exitDx=0;exitDy=0;entryX=1;entryY=0.5;entryDx=0;entryDy=0;fillColor=#76608a;strokeWidth=3;strokeColor=#004C99;" edge="1" parent="1" source="GGjfLmtMtnxDscI8gtsh-5" target="GGjfLmtMtnxDscI8gtsh-2">
                    <mxGeometry width="50" height="50" relative="1" as="geometry">
                        <mxPoint x="350" y="390" as="sourcePoint"/>
                        <mxPoint x="400" y="340" as="targetPoint"/>
                        <Array as="points">
                            <mxPoint x="400" y="240"/>
                            <mxPoint x="360" y="280"/>
                        </Array>
                    </mxGeometry>
                </mxCell>
                <mxCell id="6" value="" style="curved=1;endArrow=classic;html=1;exitX=0.5;exitY=1;exitDx=0;exitDy=0;entryX=0;entryY=0.5;entryDx=0;entryDy=0;fillColor=#76608a;strokeWidth=3;strokeColor=#004C99;" edge="1" parent="1" source="GGjfLmtMtnxDscI8gtsh-2" target="GGjfLmtMtnxDscI8gtsh-1">
                    <mxGeometry width="50" height="50" relative="1" as="geometry">
                        <mxPoint x="350" y="390" as="sourcePoint"/>
                        <mxPoint x="400" y="340" as="targetPoint"/>
                        <Array as="points">
                            <mxPoint x="280" y="360"/>
                            <mxPoint x="320" y="410"/>
                        </Array>
                    </mxGeometry>
                </mxCell>
            </root>
        </mxGraphModel>
    </diagram>
</mxfile>